<svg version="1.0" xmlns="http://www.w3.org/2000/svg" width="273.333" height="212" viewBox="0 0 205 159"><path d="M94.2 11.1l.3 11.4 6.5.7c4.4.4 8.4 1.6 12.4 3.7 4.7 2.5 7 3.1 12.2 3.1h6.5l-.3-11.3-.3-11.2-7.5-.6c-5.5-.4-8.7-1.3-12.1-3.3-3.2-1.8-6.8-2.9-11.3-3.3l-6.7-.6.3 11.4zM34.2 41.3c-.6.7-1.3 6.2-1.4 12.3l-.3 10.9-14.9.3c-9 .1-15.5.7-16.3 1.4-2 1.6-1.9 90 .1 91.7 1 .8 28.5 1 102.2.9l100.9-.3.3-44.5c.1-24.5 0-45.5-.3-46.8-.5-2.2-.8-2.2-16-2.2H173V54.7c0-7.7-.4-10.8-1.6-12.5l-1.5-2.2h-67.3c-54.3 0-67.6.3-68.4 1.3zM164 57v8H42V49h122v8zm32.8 54.7l-.3 38.8-93.7.3L9 151V73h188l-.2 38.7z"/><path d="M25 95.5V106h13V85H25v10.5zM53 95.5V106h13V85H53v10.5zM82 95.5V106h13V85H82v10.5zM111 95.5V106h13V85h-13v10.5zM139 95.5V106h13V85h-13v10.5zM168 95.5V106h13V85h-13v10.5zM25 128.5v10.6l6.3-.3 6.2-.3.3-10.3.3-10.2H25v10.5zM53.2 128.2l.3 10.3 6.3.3 6.2.3V118H52.9l.3 10.2zM82 128.5v10.6l6.3-.3 6.2-.3.3-10.3.3-10.2H82v10.5zM111 128.5v10.6l6.3-.3 6.2-.3.3-10.3.3-10.2H111v10.5zM139.2 128.2l.3 10.3 6.3.3 6.2.3V118h-13.1l.3 10.2zM168 128.5v10.6l6.3-.3 6.2-.3.3-10.3.3-10.2H168v10.5z"/></svg>