<svg version="1.0" xmlns="http://www.w3.org/2000/svg" width="269.333" height="181.333" viewBox="0 0 202 136"><path d="M42.4 3.4C39.8 6 39 7.6 39 10.4c0 3.6 0 3.6-4.5 3.6-4.4 0-4.5.1-9 6.7L21 27.5V102h-6.4c-4.9 0-6.5.4-7 1.6-.3.9-.6 6.9-.6 13.4v11.7l-3 .7c-3.5.6-4.8 2.9-3 5.1 1.1 1.3 13.6 1.5 100.9 1.3l99.6-.3V133c0-2-.7-2.7-3.2-3.5l-3.3-.9-.2-48.1-.3-48-3.2-.3-3.2-.3-.3-6.7-.3-6.7-15.2-.3-15.2-.3-.3-8.1c-.2-6.5-.6-8.3-2.1-9.2-3.1-1.9-4.7 1.7-4.7 10.1v7.2l-8.2.3-8.3.3-.3 6.7-.3 6.7-3.2.3-3.2.3L126 67l-.5 34.5-6.7.3-6.7.3-.3-37.3-.3-37.3-3.4-5.4c-4.7-7.3-5.7-8.1-10.2-8.1-3.5 0-3.9-.3-3.9-2.4 0-4.2-1.8-7.5-5.2-9.6-3-1.8-5.1-2-23.1-2H45.8l-3.4 3.4zm44.4 7.3c.3 3.1.2 3.2-4 3.5-3.9.3-4.5.7-8.5 6.3l-4.2 6-.1 37.7V102h-6.9l-.3-37.8-.3-37.7-4.3-6.3c-4.2-6-4.5-6.2-8.8-6.2-3.9 0-4.4-.2-4.4-2.3 0-4.5 1.2-4.8 22-4.5l19.5.3.3 3.2zm-33.7 14l2.1 3.3H42.1c-7.2 0-13.1-.3-13.1-.6s.9-1.9 2.1-3.5c2.1-3 2.1-3 11-2.7 8.9.3 9 .3 11 3.5zm48.7-.4l2.2 3.2-12.6.3c-7 .1-12.9 0-13.1-.2-.3-.3.5-1.9 1.7-3.5C82.1 21 82.3 21 90.8 21c8.7 0 8.7 0 11 3.3zM150 28v4h-11v-3.3c0-4.4.4-4.7 6.2-4.7h4.8v4zm31.8.2l.3 3.8H157v-8.1l12.3.3 12.2.3.3 3.7zM56 61.5V88H28V35h28v26.5zm48.8-.3l-.3 26.3-13.7.3-13.8.3V35h28l-.2 26.2zM150 42c0 3.8-.2 4-3 4-1.7 0-3.9.9-5 2-1.9 1.9-2 3.3-2 41.5V129h-8V84.2c0-24.7.3-45.2.7-45.5.3-.4 4.4-.7 9-.7h8.3v4zm38.5 0c0 3.1-.3 3.5-3 4-2.4.4-3 1-3 3s.6 2.6 3 3c2.7.5 3 .9 3 4s-.3 3.5-3 4c-2.4.4-3 1-3 3s.6 2.6 3 3c2.7.5 3 .9 3 4s-.3 3.5-3 4c-2.4.4-3 1-3 3s.6 2.6 3 3c2.7.5 3 .9 3 4s-.3 3.5-3 4c-2.4.4-3 1-3 3s.6 2.6 3 3c2.7.5 3 .9 3 4s-.3 3.5-3 4c-2.4.4-3 1-3 3 0 2.1.5 2.6 3.3 2.8 2.9.3 3.2.6 3.2 3.6 0 2.7-.5 3.3-3.2 4.1-2.6.8-3.3 1.5-3.3 3.5s.6 2.6 3 3c2.5.4 3 1 3.3 3.8l.3 3.2H146l.2-38.2.3-38.3 3.9-.6c5-.8 6.6-3 6.6-9.1v-4.9l15.8.3 15.7.3V42zM56 98v4H28v-8h28v4zm48.8-.3l-.3 3.8-13.7.3-13.8.3V94h28.1l-.3 3.7zm21.2 20.8V129H14v-21h112v10.5z"/><path d="M161.4 47.4c-1.4 3.6.3 4.7 6.3 4.4 5.4-.3 5.8-.5 5.8-2.8s-.4-2.5-5.8-2.8c-4.4-.2-5.9 0-6.3 1.2zM161.4 61.4c-1.4 3.6.3 4.7 6.3 4.4 5.4-.3 5.8-.5 5.8-2.8s-.4-2.5-5.8-2.8c-4.4-.2-5.9 0-6.3 1.2zM161.4 75.4c-1.4 3.6.3 4.7 6.3 4.4 5.4-.3 5.8-.5 5.8-2.8s-.4-2.5-5.8-2.8c-4.4-.2-5.9 0-6.3 1.2zM161.4 89.4c-1.4 3.6.3 4.7 6.3 4.4 5.4-.3 5.8-.5 5.8-2.8s-.4-2.5-5.8-2.8c-4.4-.2-5.9 0-6.3 1.2zM161.4 103.4c-1.4 3.6.3 4.7 6.3 4.4 5.4-.3 5.8-.5 5.8-2.8s-.4-2.5-5.8-2.8c-4.4-.2-5.9 0-6.3 1.2zM162.6 116.3c-1 .7-1.6 2.2-1.4 3.3.3 1.6 1.2 1.9 6.3 1.9s6-.3 6.3-1.9c.5-2.5-2.3-4.6-6.3-4.6-1.7 0-3.9.6-4.9 1.3zM23.3 116c-2.5 1-3 2.9-1.1 4.8 1.7 1.7 10.3 1.5 11.7-.2 3.3-3.9-4.2-7.2-10.6-4.6zM43.4 116.4c-3.2 2.5-.7 5 5.3 5.4 5.3.3 7.8-1.2 6.7-4.1-1-2.8-8.7-3.7-12-1.3zM64.6 116.3c-1.3 1-1.6 2-1.1 3.6.6 2 1.2 2.2 6.3 1.9 4.7-.2 5.7-.6 6-2.2.8-4-7.2-6.3-11.2-3.3zM85.4 116.4c-1.5 1.2-1.7 1.8-.8 3.3.9 1.4 2.4 1.8 6.5 1.8 5.1 0 5.4-.2 5.7-2.6.2-2-.2-2.8-2-3.3-3.8-1-7.3-.7-9.4.8zM106.6 116.3c-1 .7-1.6 2.2-1.4 3.3.3 1.6 1.2 1.9 6.3 1.9s6-.3 6.3-1.9c.5-2.5-2.3-4.6-6.3-4.6-1.7 0-3.9.6-4.9 1.3z"/></svg>