<svg version="1.0" xmlns="http://www.w3.org/2000/svg" 
width="221.333" height="178.667" viewBox="0 0 166 134">
<path d="M43 1.9c-.6 1.3-1 14.3-1 35.4 0 28.4.2 33.6 1.5 34.7.8.7 2.1 1 3 .6 1.3-.4 1.5-5.3 1.7-33.3l.3-32.8 55.8-.3L160 6v70l-41.2.2c-39.5.3-41.3.4-41.6 2.2-.2 1 .2 2.2 1 2.7 2.2 1.4 85.2 1.1 86.6-.3 1.7-1.7 1.7-77.9 0-79.6-.9-.9-15.8-1.2-61-1.2C45.8 0 44 .1 43 1.9z"/>
<path d="M69.4 18.5c-.3.8-.3 1.9.1 2.5.4.7 13.5 1 39.6 1H148v-5h-39c-33.2 0-39.1.2-39.6 1.5zM12.6 37.5C2.1 41.2-1.7 52 4.1 61.7c2.2 3.5 9.1 7.3 13.4 7.3 1.6 0 4.8-.9 7.1-2.1 9.7-4.6 11.9-17.1 4.6-25.2-4-4.5-11-6.3-16.6-4.2zM89.3 42.8c-2.1 2.6-6.9 8.9-10.8 14-5.1 6.7-7.6 9.2-9.2 9.2-1.2 0-5 2.4-8.4 5.2-10.4 8.9-8 8.5-25.7 4.9-8.6-1.7-17-3.1-18.7-3.1-4.6.1-10.9 3.4-13.6 7.1C.5 83.5.5 83.7.5 108.5v25l16.7.3 16.8.2v-22.3c0-12.3.2-22.6.5-22.9.3-.3 4.5.3 9.3 1.3 4.8 1 9.2 1.8 9.9 1.9.7 0 5.5-3.7 10.8-8.2 9-7.7 11.4-11 10.2-14.1-.3-.7 4.2-7.4 9.9-14.8C94.1 42.7 96.7 38 94 38c-.5 0-2.7 2.2-4.7 4.8zM106 39.5c-.7.8-1 2.2-.6 3 .5 1.3 3.4 1.5 21.3 1.3 19.4-.3 20.8-.4 21.1-2.2.2-1-.2-2.2-1-2.7-.7-.5-9.9-.9-20.4-.9-15.8 0-19.4.3-20.4 1.5zM97.1 62.4c-.6.7-.9 2.1-.5 3 .6 1.5 3.2 1.6 25.8 1.4 23.6-.3 25.1-.4 25.4-2.2.2-1-.2-2.2-1-2.7-.7-.5-11.9-.9-24.9-.9-18.9 0-23.9.3-24.8 1.4zM80.6 89c-6.4 2-10.1 7.9-9.3 15.4.4 4.1 1.1 5.5 4 8.2 6.4 5.9 13.6 5.7 19.9-.5 3.4-3.4 3.8-4.4 3.8-8.7C99 93 90.1 86.1 80.6 89zM133 90.2c-13.8 7.2-7.8 28.1 7.7 26.5 8.6-.9 14.6-9.2 12.4-17.3-1.2-4.4-5.1-8.7-9.4-10.3-4.1-1.6-5.7-1.4-10.7 1.1zM79.9 120.9c-4.9 1-10.3 4.5-11.7 7.6-2.6 5.6-2.8 5.5 17.4 5.5h18.5l-.6-2.3c-2.5-8.1-12.9-12.9-23.6-10.8zM132.5 121.5c-5.4 1.4-11.5 7-11.5 10.5 0 1.9.6 2 18.6 2h18.6l-.6-2.8c-1-4.1-7-8.9-12.7-10.1-6-1.3-6.1-1.3-12.4.4z"/>
</svg>